<?xml version="1.0" encoding="utf-8"?>
<!-- Generator: Adobe Illustrator 21.1.0, SVG Export Plug-In . SVG Version: 6.00 Build 0)  -->
<svg version="1.1" id="Layer_1" xmlns="http://www.w3.org/2000/svg" xmlns:xlink="http://www.w3.org/1999/xlink" x="0px" y="0px"
	 viewBox="0 0 100 48.5" style="enable-background:new 0 0 100 48.5;" xml:space="preserve">
<style type="text/css">
	.st0{fill:#FFFFFF;}
</style>
<title>logo</title>
<path class="st0" d="M0,38.7c0.3-1.4,0.6-2.7,0.9-4c0.6-2.6,1.2-5.2,1.8-7.8c0.5-2.1,1-4.2,1.5-6.2c0.4-1.7,0.8-3.4,1.2-5.1
	c0.1-0.4,0.3-0.8,0.5-1.1c1.1-1.5,2.1-3,3.2-4.5L15.3,1c0.2-0.3,0.4-0.5,0.6-0.8C15.9,0.2,16,0.1,16.1,0c0.3,0.2,0.6,0.6,0.8,0.9
	C19,3.8,21,6.7,23,9.6c1.2,1.7,2.4,3.4,3.6,5c0.1,0.1,0.1,0.3,0.2,0.4c0.4,1.6,0.7,3.1,1.1,4.7c0.3,1.1,0.5,2.2,0.8,3.3l1.8,7.5
	l1.7,7.4c0,0.2,0.1,0.4,0.1,0.7c-1.3,0.9-2.7,1.6-4,2.5s-2.7,1.6-4,2.4L20.1,46l-4,2.5L0,38.7z M16.1,11.6
	c-2.5,4.2-4.9,8.4-7.3,12.5l4.5,14.2H19l4.5-14.2L16.1,11.6z M23.7,23.4l2.5-8.4L16.4,1.1c0,0.3,0,0.4,0,0.6c0,2.9,0,5.8,0,8.7
	c0,0.4,0.1,0.8,0.3,1.2c0.8,1.2,1.5,2.5,2.2,3.8l3.1,5.3L23.7,23.4z M6.1,15l2.5,8.4c0.1-0.2,0.3-0.4,0.4-0.6
	c0.8-1.4,1.6-2.7,2.4-4.1c1.4-2.4,2.8-4.8,4.2-7.2c0.2-0.3,0.2-0.6,0.2-0.9c0-2.9,0-5.9,0-8.8c0-0.1,0-0.3,0-0.5L6.1,15z M19.5,38.3
	h12l-7.6-13.4h-0.1L19.5,38.3z M8.5,24.9H8.3L0.8,38.2h11.8l0,0v-0.1L8.5,24.9z M15.5,47.5c0-0.1,0.1-0.1,0.1-0.2l-2.7-8.5H1.3
	L15.5,47.5z M19.4,38.8l-2.8,8.8L31,38.8L19.4,38.8z M26.5,16.2c0,0-0.1,0.1-0.1,0.1c-0.7,2.5-1.5,4.9-2.2,7.3
	c-0.1,0.3,0,0.5,0.1,0.8c0.6,1.1,1.2,2.1,1.8,3.2l4.8,8.5c0.1,0.1,0.1,0.2,0.2,0.3c-1.4-6.7-3-13.4-4.5-20
	C26.6,16.3,26.5,16.2,26.5,16.2z M1.1,36.5c0.2-0.3,0.4-0.6,0.5-0.8c0.4-0.8,0.9-1.6,1.3-2.3L5.4,29c0.9-1.5,1.7-3,2.6-4.6
	c0.2-0.3,0.2-0.6,0.1-0.9c-0.2-0.6-0.4-1.2-0.6-1.9L5.8,16L1.1,36.1C1.1,36.2,1.1,36.4,1.1,36.5z M13.4,38.8
	c0.9,2.8,1.8,5.6,2.7,8.4l2.7-8.4H13.4z"/>
<path class="st0" d="M78.5,28.8c0.1,1.3-0.2,2.7-0.7,3.9c-0.5,1.1-1.4,2-2.6,2.5c-1.8,0.7-3.7,0.7-5.5,0c-1.4-0.5-2.5-1.7-2.9-3.2
	c-0.6-2-0.6-4.1-0.1-6.1c0.4-2,2-3.5,4.1-3.8c1.1-0.2,2.1-0.2,3.2,0c2.4,0.4,4.2,2.4,4.3,4.9C78.5,27.6,78.5,28.2,78.5,28.8z
	 M77.6,28.9L77.6,28.9c-0.1-0.3-0.1-0.7-0.1-1c-0.3-3.1-1.5-4.6-4.3-4.9c-2.4-0.2-4.6,0.5-5.3,3.1c-0.3,1.1-0.4,2.3-0.3,3.5
	c0.3,2.8,0.9,4.6,4.4,4.9c2.9,0.3,4.5-0.8,5.2-3.1C77.3,30.7,77.5,29.8,77.6,28.9L77.6,28.9z"/>
<path class="st0" d="M99.2,23.8c-1.4-0.6-2.9-0.9-4.4-0.6c-1.1,0-2,0.9-2.2,2c-0.2,0.9,0.3,1.8,1.2,2.1c0.8,0.4,1.6,0.6,2.3,0.9
	s1.3,0.4,1.9,0.7c1.4,0.6,2.1,2.1,1.9,3.5c-0.1,1.3-1,2.5-2.2,2.8c-1.6,0.5-3.3,0.5-4.9,0c-0.5-0.2-0.9-0.3-1.4-0.5v-0.9
	c0.1,0,0.2-0.1,0.2-0.1c1.5,0.7,3.2,0.9,4.9,0.7c1.3,0,2.3-1.1,2.3-2.3c0-0.2,0-0.3-0.1-0.5c-0.1-0.7-0.6-1.4-1.3-1.7
	c-0.6-0.3-1.3-0.5-1.9-0.7c-0.8-0.3-1.6-0.5-2.3-0.8c-1.1-0.4-1.8-1.4-1.8-2.6c-0.1-1.2,0.5-2.4,1.6-3c1.9-1,4.1-1,5.9,0
	C99.4,22.8,99.4,23.2,99.2,23.8z"/>
<path class="st0" d="M53.9,22.2v0.9H47v5h6l0.2,1c-2.1,0.3-4.2,0-6.3,0.2v4.9c1.1,0.1,2.3,0.2,3.5,0.1c1.1,0,2.2,0,3.5,0l0,0.8
	c-1.3,0.2-2.7,0.2-4,0.1c-1.3,0-2.6,0-3.8,0c-0.3-1-0.4-10.3-0.1-13.1c0.9-0.1,1.7-0.1,2.6-0.1c0.8,0,1.7,0,2.5,0L53.9,22.2z"/>
</svg>
