<?xml version="1.0" encoding="UTF-8"?>
<svg width="1500px" height="340px" viewBox="0 0 1500 340" version="1.1" xmlns="http://www.w3.org/2000/svg" xmlns:xlink="http://www.w3.org/1999/xlink">
    <!-- Generator: Sketch 46.2 (44496) - http://www.bohemiancoding.com/sketch -->
    <title>tandemly-full-logo</title>
    <desc>Created with Sketch.</desc>
    <defs></defs>
    <g id="Page-1" stroke="none" stroke-width="1" fill="none" fill-rule="evenodd">
        <g id="tandemly-full-logo" fill-rule="nonzero">
            <g id="Tandemly_LogoFull_White">
                <polygon id="Shape" fill="#FFFFFF" points="37.4 37.4 115.4 37.4 115.4 0 0 0 0 339.2 115.4 339.2 115.4 301.7 37.4 301.7"></polygon>
                <polygon id="Shape" fill="#FFFFFF" points="290.2 37.4 364.7 37.4 364.7 301.7 290.2 301.7 290.2 339.2 402.1 339.2 402.1 0 290.2 0"></polygon>
                <path d="M206.1,150.8 L285,150.8 L296.3,113.4 L217.4,113.4 L224.5,90 L188.2,79 L177.8,113.3 L116.7,113.3 L105.3,151 L105.5,151.1 L105.5,151.1 L161.3,168 L151.8,200.1 C150.8,204.4 150.2,208.8 150.2,213.4 C150.2,232.2 159.3,248.8 173.3,259.1 C182.7,266 194.3,270.1 206.8,270.1 L207.6,270.1 C213.6,270.1 219.3,269.1 224.7,267.2 C245.1,260.1 259.8,240.7 259.8,217.9 C259.8,193.6 243.2,173.2 220.8,167.4 L215.6,184.5 C224.9,188 231.5,197 231.5,207.6 C231.5,220.6 221.4,231.3 208.6,232.2 C208,232.2 207.4,232.3 206.8,232.3 C206.2,232.3 205.6,232.3 205,232.2 C203.6,232.1 202.1,231.8 200.7,231.3 C190.8,227.9 185.6,217.2 189,207.3 C189.1,207.2 206.1,150.8 206.1,150.8 Z" id="Shape" fill="#FFFFFF"></path>
                <polygon id="Shape" fill="#473D4B" points="188 79.1 188.1 79.1 188.1 79.1"></polygon>
                <path d="M1234.5,131.1 C1232.8,128.3 1230.4,126.3 1227.9,124.5 C1226.9,123.8 1226.2,123.5 1225.1,123.1 C1224.1,122.8 1223,122.4 1221.6,122.4 C1220.9,122.4 1219.9,122.4 1219.2,122.7 C1217.8,122.7 1216.1,123 1214.7,123.4 C1213.3,123.7 1211.9,124.1 1210.6,124.8 C1210.3,124.8 1209.9,124.8 1209.2,125.1 C1208.9,125.1 1208.5,125.4 1207.8,125.4 C1207.5,125.4 1207.1,125.7 1206.8,125.7 C1206.1,126 1205.4,126.4 1204.7,126.7 C1204,127 1203.7,127.4 1203,128.1 C1195.1,132.6 1187.1,138.5 1179.2,146.1 C1175.1,149.9 1171.6,153.7 1168.2,157.1 C1168.2,156.4 1167.9,155.7 1167.9,155 C1167.2,152.9 1166.5,150.5 1165.5,148.8 C1164.8,147.4 1163.4,146.4 1162.4,145.3 C1161,144.6 1159.6,143.9 1158.3,143.6 C1156.9,143.3 1155.5,143.3 1154.2,142.9 C1152.5,142.2 1150.7,141.5 1148.7,141.2 C1147,140.9 1145.2,140.5 1143.5,140.5 L1141.4,140.5 C1140.7,140.5 1140.4,140.5 1139.7,140.5 C1139.4,140.5 1138.7,140.8 1138.3,140.8 L1138,140.8 C1135.9,141.1 1133.9,142.2 1131.1,143.2 C1128.3,144.6 1125.2,146.3 1121.4,148.7 L1121.4,148.4 L1121.4,148 C1121.4,147.3 1121.4,146.6 1121.4,145.9 C1121.4,145.2 1121.4,144.5 1121.1,143.8 C1121.1,143.1 1120.8,142.4 1120.4,142.1 C1120.4,141.8 1120.4,141.4 1120.1,141.1 L1120.1,140.4 L1119.8,139.4 C1119.1,137.7 1118.1,135.9 1117,134.6 C1116.3,133.9 1115.6,132.9 1114.6,131.8 C1113.9,131.1 1113.2,130.4 1112.5,129.7 C1111.8,129 1111.1,128.3 1110.1,128 C1109.4,127.7 1108.7,127.3 1107.7,127 C1106.7,126.7 1105.6,126.3 1104.2,125.6 C1102.5,124.9 1100.7,124.6 1099,124.6 C1098,124.6 1097.3,124.6 1096.2,124.9 C1095.2,125.2 1094.5,125.6 1093.4,125.9 C1093.1,126.2 1092.7,126.2 1092.4,126.6 L1092.1,126.6 L1086.9,126.6 L1086.9,129.4 C1086.2,130.1 1085.9,130.8 1085.5,131.5 C1085.2,132.2 1085.2,132.9 1085.2,133.6 C1085.2,133.9 1085.2,134.3 1085.2,134.6 L1084.9,134.9 L1083.9,135.9 L1083.9,136.9 L1083.6,137.6 C1082.2,140.4 1081.2,143.5 1079.8,147.3 C1078.8,150.8 1077.7,153.9 1076.7,156.6 L1076.4,157.6 L1076.4,157.9 L1076.4,158.2 C1076.4,158.5 1076.4,158.9 1076.1,158.9 C1072,171 1068.2,182.7 1064.4,194.5 C1062.7,200.4 1060.9,205.9 1059.2,211.8 C1056.4,214.9 1052.6,218.7 1048.2,223.2 C1042,229.1 1034.7,235.3 1025.8,241.2 C1022.7,243.3 1019.6,245 1017.5,246 C1015.1,247 1013.4,247.7 1012,248.1 C1008.5,248.8 1005.8,249.1 1003.4,249.5 L1003.1,249.5 C1002.4,249.5 1002.1,249.5 1001,249.8 C1000.7,249.8 999.6,249.8 998.9,249.8 L994.1,249.8 C993.1,249.8 992.7,249.8 992.4,249.5 C992.1,249.5 992.1,249.2 991.7,248.8 L991.7,248.5 L991.7,248.2 C991.4,247.9 991,247.2 990.7,246.5 C990.4,245.8 990.4,244.8 990.4,243.7 L990.4,243 L990.4,242.7 C990.4,242.4 990.4,242 990.4,241.7 C990.4,241.4 990.4,241 990.4,240.7 L990.4,240.4 L990.4,240.1 C992.5,239.4 994.5,238.7 997.3,237.7 C1001.8,236 1006.6,233.6 1011.8,230.4 C1017.3,227.3 1022.5,223.1 1028,218.3 C1033.9,213.1 1039,206.9 1043.9,199.7 C1045.3,197.6 1046.7,195.6 1047.7,192.8 C1048.7,190.7 1049.8,188 1050.8,185.2 C1051.8,182.1 1052.9,178.3 1053.6,174.2 C1053.9,172.5 1053.9,170.7 1053.9,169 C1053.9,166.6 1053.6,164.2 1053.2,161.7 L1053.2,161.4 L1053.2,160.7 L1053.2,160 C1052.5,157.6 1051.8,155.2 1051.1,152.4 C1050.4,149.3 1049,146.5 1047.6,144.1 L1047.3,143.4 C1047,143.1 1047,142.7 1046.6,142.4 C1046.2,142.1 1046.3,141.7 1045.9,141.7 C1044.2,139.6 1042.1,137.9 1039.7,136.5 C1037.6,135.5 1035.6,134.8 1033.8,134.1 C1032.1,133.4 1030,133.4 1027.9,133.4 C1026.9,133.4 1025.8,133.4 1024.8,133.7 L1024.5,133.7 L1024.2,133.7 C1017.3,135.8 1011.1,138.5 1005.2,142.7 C999.3,146.8 994.2,152 989.3,157.9 C980,169.6 972.4,182.4 966.5,196.2 C965.1,200 963.7,203.1 962.7,206.6 C961.7,209.7 961,212.5 960.3,214.9 C958.6,220.1 957.5,224.6 956.5,228.7 C955.5,232.8 955.1,236.3 955.1,239.4 C955.1,239.7 955.1,240.1 955.1,240.4 C955.1,243.2 955.4,245.6 956.1,248 C956.8,250.4 957.5,252.8 958.9,254.6 C960.6,257 962.4,259.1 964.4,260.8 C966.1,262.2 967.5,263.6 969.2,264.6 L969.5,264.6 C973.3,267.4 977.4,269.1 981.2,269.8 C982.6,270.1 984,270.5 985,270.5 C986,270.8 986.7,270.8 987.4,270.8 L988.1,270.8 L989.5,270.8 L990.5,270.8 L992.2,270.8 L992.5,270.8 L992.8,270.8 L993.1,270.8 C995.9,270.5 1000,270.1 1005.5,269.4 C1008.6,269.1 1011,268.7 1013.4,268.4 C1015.8,268.1 1017.9,267.4 1019.6,266.7 C1025.5,264.6 1031.3,261.5 1037.6,257.7 C1042.8,254.6 1047.3,251.1 1051.8,247.7 C1051.8,249.8 1054.2,255 1055.9,258.1 C1055.9,258.4 1056.2,258.8 1056.2,259.1 C1056.5,259.8 1056.9,260.5 1057.6,260.8 C1057.9,261.1 1058.3,261.5 1059,262.2 C1059.3,262.5 1059.7,262.5 1060.4,262.9 C1060.7,262.9 1061.4,263.2 1062.1,263.2 L1062.4,263.2 C1062.7,263.5 1063.1,263.5 1063.4,263.9 C1063.7,263.9 1064.1,264.2 1064.4,264.2 C1065.1,264.9 1065.4,265.2 1066.1,265.9 C1067.1,266.6 1068.5,267.3 1069.6,267.3 C1070.6,267.6 1071.7,267.6 1072.7,267.6 C1073.4,267.6 1074.4,267.6 1075.1,267.3 C1075.4,267.3 1075.8,267.3 1076.1,267 C1076.8,266.7 1077.1,266.7 1077.5,266.3 C1078.2,266 1078.5,265.6 1078.9,265.3 C1079.2,265 1079.6,264.6 1079.9,264.3 C1080.2,264 1080.9,263.3 1081.3,262.6 C1081.6,261.9 1082,260.9 1082,259.8 L1082,257.7 C1082,257.7 1081,251.8 1082.7,245.6 C1085.1,236.6 1088.2,227.6 1091.3,218.3 C1096.5,209.3 1101.3,202.1 1105.5,195.9 C1110,189.7 1114.1,184.5 1117.6,180.7 C1121.1,176.6 1124.2,173.8 1126.6,171.7 C1128.3,170.3 1130.1,168.9 1131.1,168.2 C1131.1,168.2 1131.1,168.5 1131.1,169.2 C1131.1,169.9 1131.1,170.6 1131.1,172 C1131.1,173.4 1131.1,174.8 1131.1,176.5 C1130.8,181.3 1130.1,187.2 1129,193.4 C1128.7,194.4 1128.3,195.8 1128.3,196.9 C1128.3,196.9 1128.3,197.2 1128,197.6 L1128,197.9 L1128,198.2 C1125.6,209.2 1123.9,219.3 1123.2,228.2 C1122.9,232.7 1122.5,235.8 1122.2,238.2 C1122.2,239.2 1121.9,240.3 1121.9,240.6 C1121.9,240.6 1121.9,240.6 1121.9,240.9 L1121.6,241.6 L1121.6,246.1 L1124,247.5 C1124.7,247.8 1125,248.2 1125.7,248.5 C1126.4,248.8 1127.1,248.8 1128.1,248.8 C1128.4,248.8 1128.8,248.8 1129.1,248.8 C1129.4,249.1 1129.8,249.1 1130.1,249.5 C1130.8,249.8 1131.8,250.2 1132.9,250.2 C1133.9,250.2 1135,249.9 1135.7,249.5 C1135.7,249.5 1136,249.5 1136,249.2 C1136,249.2 1136.3,249.2 1136.3,248.9 C1137,248.6 1137.3,248.2 1137.7,247.9 C1140.1,245.8 1142.5,243.8 1145,241.3 C1147.1,238.9 1149.1,236.1 1150.9,233.7 C1152.6,230.2 1154.4,227.1 1155.7,224.4 C1157.1,221.6 1158.1,219.2 1158.8,217.1 L1159.5,216.4 L1159.8,215 C1160.1,213.6 1160.5,212.2 1160.8,210.5 C1161.1,209.5 1161.1,208.4 1161.5,207.4 L1162.2,206.7 L1162.5,205.3 C1163.2,203.2 1163.9,200.8 1164.6,198.7 C1165.3,196.6 1166,194.2 1166.7,192.1 C1169.5,188.6 1172.6,185.2 1175.7,182.4 C1177.4,180.7 1178.8,179.3 1179.8,178.3 C1180.5,177.6 1180.8,177.3 1181.2,176.9 C1181.5,176.6 1181.5,176.2 1181.9,175.9 L1182.2,175.6 L1183.6,174.2 L1183.6,173.5 C1187.1,169.4 1190.5,166.2 1193.6,163.8 C1195.7,162.4 1197.1,161 1198.4,160.3 C1198.7,160 1199.4,159.6 1199.8,159.3 C1199.8,159.6 1199.8,160 1199.8,160.7 C1199.8,161.7 1199.5,162.8 1199.5,163.8 C1198.8,167.6 1198.1,172.1 1197.1,177.6 C1196.1,182.8 1195,188.3 1193.6,194.2 C1193.3,195.9 1192.9,197.7 1192.2,199.4 C1191.5,202.5 1190.8,205.3 1190.1,208 L1189.4,210.4 C1189.1,211.8 1188.7,212.8 1188.4,214.5 C1188.1,215.9 1187.7,217.6 1187,220 L1187,220.7 L1187,221 C1187,221.3 1186.7,222 1186.7,222.4 L1186.4,223.1 L1186.4,223.8 C1186.1,225.5 1185.7,227.3 1185.7,229 C1185.7,230.4 1185.4,232.1 1185.4,233.5 C1185.1,234.9 1185.1,235.9 1185.1,237.3 C1185.1,238.3 1185.1,239.4 1185.1,240.4 L1185.1,240.7 C1184.1,244.5 1183.7,248 1183.7,251.1 L1183.7,251.8 L1183.7,252.1 C1183.7,252.4 1183.7,252.8 1183.4,252.8 L1181.3,256.6 L1182,256.9 C1182,257.2 1182,257.9 1182,258.3 C1182,259 1182,259.7 1182.3,260 C1182.6,261 1183,261.7 1183.7,262.4 C1184,262.7 1184.7,263.1 1185.1,263.4 C1185.4,263.7 1185.8,264.4 1186.5,265.5 C1187.5,267.2 1188.9,268.3 1190.3,269.3 C1191.7,270 1193.4,270.7 1195.1,270.7 C1196.5,271 1197.9,271 1198.9,271.4 C1199.9,271.4 1200.6,271.7 1201.7,271.7 L1202,271.7 C1204.1,271.7 1205.8,271 1207.5,270.3 C1208.5,270 1209.6,269.3 1210.6,269.3 C1211.6,269 1213,268.6 1213.7,267.9 C1214.4,267.6 1215.1,266.9 1215.8,266.2 C1216.1,265.9 1216.1,265.9 1216.5,265.5 L1217.5,264.8 C1218.5,264.1 1219.2,263.1 1219.9,262 C1220.6,261 1220.9,259.9 1221.3,258.9 C1221.6,257.5 1222,256.5 1222.3,255.8 C1222.6,255.1 1222.6,254.4 1222.6,254.1 C1222.6,253.4 1222.6,252.7 1222.3,252 C1222.3,251.3 1222,250.6 1222,249.9 C1222,249.6 1222,249.2 1222,248.9 C1222,248.6 1222,248.6 1222,248.2 C1222,247.2 1222.3,246.1 1222.3,245.1 C1222.3,244.1 1222.3,242.7 1222.3,241.3 C1222.3,240.3 1222.3,239.6 1222.3,238.5 C1222.3,237.1 1222.3,235.7 1222,234.4 C1222,232.7 1221.7,230.9 1221.7,229.6 C1221.7,229.3 1221.7,228.9 1221.7,228.6 C1221.7,227.9 1222,226.9 1222.4,225.5 C1223.1,221.4 1224.5,214.5 1225.9,206.5 C1225.9,206.2 1226.2,205.8 1226.2,205.5 L1226.2,205.2 C1226.2,204.9 1226.5,204.9 1226.5,204.5 C1226.5,204.2 1226.8,203.8 1226.8,203.5 L1228.9,195.9 C1228.9,195.6 1229.2,195.6 1229.2,195.2 C1229.5,194.5 1229.5,193.8 1229.9,193.5 C1229.9,193.5 1229.9,193.5 1229.9,193.2 C1230.2,191.5 1230.6,190.1 1230.9,188.4 C1231.2,186.3 1231.6,183.6 1232.6,180.1 C1233.6,176.6 1234.3,172.8 1235.4,169.1 C1237.5,165.6 1238.2,161.8 1238.9,158.7 C1239.2,156.3 1239.6,154.6 1239.6,152.5 C1239.6,151.8 1239.6,151.5 1239.6,150.8 C1239.9,149.8 1239.9,148.4 1239.9,147.3 C1239.9,144.9 1239.6,142.8 1238.9,140.4 C1237.6,136.9 1236.2,133.8 1234.5,131.1 Z M1002.8,199.4 C1005.9,193.2 1009.4,187.7 1012.5,183.2 C1017.7,175.6 1022.5,169.4 1026.7,165.6 C1027.4,164.9 1028.1,164.2 1028.8,163.9 L1028.8,168.4 C1028.1,172.2 1027.1,176.3 1025.7,180.8 C1024.3,184.6 1022.2,188.7 1019.5,193.2 C1017.1,197.3 1013.3,201.1 1008.8,204.9 C1005.7,206.6 1002.6,208.7 999.1,210.1 C998.8,210.4 998.4,210.4 998.1,210.8 C999.7,206.3 1001,202.9 1002.8,199.4 Z" id="Shape" fill="#473D4B"></path>
                <path d="M1274.9,235.4 C1274.2,234.7 1273.5,234.4 1273.2,233.7 C1272.5,233 1271.8,232.7 1271.5,232.7 C1270.8,232.4 1270.1,232.4 1269.4,232 C1268.7,232 1268.4,232 1267.7,232 C1267,232 1266.3,232 1264.9,231.7 C1264.2,231.7 1263.5,231.4 1262.8,231.4 C1262.5,231.4 1262.5,231.4 1262.1,231.4 C1261.7,231.4 1261.8,231.1 1261.4,231.1 L1260.7,230.8 L1260,230.8 C1259,230.5 1257.9,230.1 1257.2,230.1 C1256.5,230.1 1256.2,229.8 1255.8,229.8 C1255.4,229.8 1255.5,229.8 1255.1,229.8 C1254.8,229.8 1254.4,229.8 1254.1,229.8 L1248.9,229.8 L1248.9,232.6 C1248.9,232.9 1248.6,232.9 1248.6,233.3 C1248.3,234 1247.6,235 1247.2,235.7 C1246.9,236.4 1246.5,237.1 1246.5,237.8 C1246.2,238.5 1246.2,239.2 1245.8,240.2 C1245.5,241.9 1244.8,243.7 1244.4,245.7 C1243.7,247.4 1243,250.2 1242,253.3 C1241.3,255 1241,256.4 1240.6,257.8 C1240.6,258.5 1240.3,258.8 1240.3,259.5 C1240.3,260.2 1240.3,260.5 1240,261.2 C1240,262.6 1240.3,264 1241,265 C1241.7,266 1242,267.1 1243.1,267.8 C1244.5,269.5 1246.6,270.9 1248.6,271.6 C1250.3,272.3 1252.1,273 1254.1,273.7 C1255.8,274 1257.2,274.4 1258.9,274.4 C1259.6,274.4 1260.6,274.4 1261.3,274.1 L1261.6,274.1 L1261.9,274.1 C1262.9,273.8 1263.6,273.4 1264,273.1 C1264.7,272.4 1265.4,271.7 1266.4,271 C1267.1,270.3 1267.8,269.3 1268.8,268.2 C1271.2,265.4 1272.9,262.3 1273.6,259.2 C1273.6,259.2 1273.6,259.2 1273.6,258.9 C1273.6,258.6 1273.9,258.2 1273.9,257.9 C1274.2,256.5 1274.6,255.1 1275.3,252.7 C1275.6,251 1276,249.9 1276.3,248.9 C1276.3,248.6 1276.6,247.9 1276.6,247.5 L1276.6,247.2 C1276.6,246.9 1276.9,246.5 1276.9,246.2 C1276.9,245.9 1277.2,245.5 1277.2,244.8 L1277.9,243.8 L1277.9,242.4 C1277.9,241.4 1277.6,240 1277.2,239.3 C1275.9,236.7 1275.6,236 1274.9,235.4 Z" id="Shape" fill="#473D4B"></path>
                <path d="M983.8,101.7 C988.3,94.8 992.1,88.2 995.5,82.4 C999,76.5 1001.4,71.4 1003.1,67.2 C1003.4,66.5 1003.8,65.8 1003.8,64.8 C1003.8,64.5 1003.8,64.5 1004.1,64.1 L1004.1,63.8 L1004.1,63.5 C1004.4,62.5 1005.5,59.4 1006.5,55.9 C1007.2,54.2 1007.5,52.4 1007.9,50.7 C1008.2,50 1008.2,49 1008.6,48.3 C1008.6,47.6 1008.9,46.9 1008.9,46.2 C1009.2,44.1 1009.2,42.1 1009.2,40 C1009.2,38.6 1009.2,37.2 1008.9,36.2 C1008.9,35.5 1008.6,34.8 1008.6,34.1 C1008.6,33.8 1008.3,33.1 1007.9,32.4 C1007.6,31.7 1006.9,30.7 1005.8,30 C1005.5,29.7 1004.8,29.3 1004.1,29 C1003.4,28.7 1002.7,28.7 1002,28.7 L1001.7,28.7 L1001.4,28.7 L1001.1,28.7 C1000.4,28.4 999.7,28 999,27.7 C998.3,27.4 997.3,27.4 996.2,27.4 C995.9,27.4 995.9,27.4 995.5,27.4 C993.8,26.7 992,26.7 990.3,26.7 C987.9,26.7 985.1,27 982.7,28.1 C979.9,29.1 977.2,30.9 974.4,32.9 C971.6,35 968.9,37.7 966.1,41.2 C960.2,47.8 954,57.1 947.8,69.5 C941.2,81.6 934.7,97.1 928.5,116.1 C928.5,116.1 928.5,116.1 928.5,116.4 C928.2,117.1 927.8,117.8 927.5,119.2 C927.2,120.2 926.5,122 925.8,123.7 C924.8,126.5 923.7,129.6 922,133.4 C920.3,132.7 918.5,132.4 916.8,132.4 C915.4,132.4 913.7,132.1 912.3,132.1 C910.9,132.1 909.5,132.1 908.2,132.4 C905.4,132.7 902.7,133.4 899.9,134.1 C896.8,134.4 893.3,135.1 890.2,136.2 C887.1,137.3 884,139 880.5,141 C874.3,145.1 868.4,150.3 862.9,156.9 C857.4,163.1 852.2,170 847.7,177.3 C847.4,178 847,178.7 846.7,179 C846.4,179.3 846,179.7 845.7,180 C845.4,180.3 845,180.7 845,181 L844.7,181.3 L844.4,181.6 L844.1,182.3 C841.7,186.4 838.2,192.3 833.1,200.6 C827.9,208.5 822.4,216.5 816.5,224.8 C810.6,232.7 804.8,239.6 799.2,245.9 C796.4,248.7 794,251.1 792.3,252.1 C791.6,252.8 790.6,253.1 790.2,253.1 C789.9,253.1 789.9,253.1 789.9,253.1 C789.9,253.1 789.6,252.4 789.2,252.1 C788.9,251.4 788.9,250.7 788.5,249.3 C787.8,245.5 787.5,241.4 787.5,237.2 C787.5,236.2 787.5,234.8 787.5,233.7 C787.8,230.9 788.2,227.1 789.2,222.3 C789.9,217.8 791.6,211.9 793.7,205.4 L794,204.7 L794,204 C794.3,202.3 795,200.5 795.4,199.2 C795.7,197.8 796.4,196.1 796.8,194.4 C797.1,194.1 797.5,193.4 797.5,193 C797.8,192 798.2,190.9 798.2,189.9 L798.5,189.2 L798.5,188.5 C799.2,183.3 799.5,178.8 799.5,174.3 C799.5,171.2 799.2,168.1 798.8,165.3 C798.8,162.5 798.5,160.1 797.8,158 C797.1,155.6 796.4,153.5 795,151.8 C794,150.1 792.2,148.7 790.5,147.3 C788.8,145.9 786.7,144.9 784.3,143.5 C782.2,142.8 780.5,142.1 779.1,141.8 C777.4,141.5 776,141.1 774.3,141.1 L770.8,141.1 C770.1,141.1 769.8,141.1 769.1,141.1 C768.8,141.1 768.1,141.4 767.7,141.4 L767.4,141.4 C765.3,141.7 763.3,142.8 760.5,143.8 C757.7,144.8 755,146.6 751.5,149 C751.5,147.3 751.2,145.9 750.8,144.2 L750.5,143.2 C750.5,142.9 750.5,142.9 750.2,142.9 L750.2,142.6 C749.9,141.6 749.5,140.9 749.2,139.8 C748.5,138.8 747.8,137.7 747.1,137 C746.4,136.3 745.7,135.6 745,134.6 C744.3,133.9 743.6,133.2 742.9,132.5 C742.2,131.8 741.5,131.1 740.5,130.8 C739.8,130.5 739.1,130.1 738.1,129.8 C737.1,129.5 736,129.1 734.6,128.4 C732.9,127.7 731.5,127.4 729.8,127.4 C728.8,127.4 728.1,127.4 727,127.7 C725.9,128 725.3,128.4 724.6,128.7 C723.6,129.4 722.9,129.4 722.5,129.7 C721.8,129.7 721.5,129.7 720.8,130 C720.1,130.3 719.4,130.3 719.1,131 C718.1,131.7 717.4,132.7 717,133.4 C717,133.7 717,133.7 716.7,134.1 L715.7,134.1 L715.7,138.2 C715.7,138.5 715.4,138.9 715.4,138.9 L715.1,139.6 C713.7,142.4 712.7,145.5 711.3,149.3 C710.3,152.4 709.2,155.5 708.2,158.3 C708.2,158.3 707.9,158.6 707.9,159 L707.6,159.3 L707.3,160.3 C704.2,169.3 701.4,178.3 698.7,186.9 C696.6,190.4 693.9,194.5 690.8,199.7 C685.6,207.6 680.1,215.6 674.2,223.9 C668.3,231.8 662.5,239.1 656.9,245 C654.1,247.8 652.1,250.2 650.3,251.2 C649.6,251.9 648.9,252.2 648.2,252.2 C647.9,252.2 647.9,252.2 647.9,252.2 C647.6,252.2 647.6,252.2 647.2,252.2 C647.2,252.2 647.2,252.2 646.9,251.9 C646.6,251.6 646.6,251.2 646.2,250.2 C645.2,247.1 644.5,243.3 644.5,239.2 C644.5,238.2 644.5,237.5 644.5,236.4 C644.5,232.9 644.8,229.5 645.2,226.4 C645.5,224.3 645.9,222.6 645.9,221.2 C646.2,219.8 646.2,218.8 646.2,218.1 L646.2,217.8 L646.2,215.7 C646.2,215.7 646.2,215.7 646.2,215.4 C646.2,215.1 646.2,214.7 646.5,214.4 C646.8,213 647.2,210.9 647.5,208.5 C647.8,206.4 648.2,203 649.2,198.8 L649.2,198.5 L649.2,198.2 L650.6,195.1 L650.6,194.1 C650.6,193.8 650.9,193.4 650.9,193.1 C651.2,192.8 651.6,192.1 651.6,191.7 C651.9,190.7 652.3,189.6 652.3,188.6 C652.3,187.9 652.3,187.2 652.3,186.9 C652.3,185.2 652,183.4 651.6,181.7 L651.6,181 L651.3,180.3 C651,179.6 650.3,178.6 649.6,177.9 C648.9,177.2 648.2,176.5 647.2,175.8 C646.9,175.5 646.5,175.5 646.2,175.1 L645.5,174.4 C645.5,174.4 645.5,174.4 645.8,174.1 C646.5,173.8 647.5,173.4 647.9,172.7 C648.6,172.4 648.9,171.7 649.3,171 C649.7,170.3 650,169.3 650.3,168.6 C650.3,167.9 650.6,167.2 650.6,166.5 C650.6,165.1 650.3,163.7 649.6,162.7 C647.9,159.2 646.1,156.1 644.4,153.7 C642.3,150.9 640.3,148.9 637.5,147.5 C633,144.7 628.5,143 624,142.3 C622.6,142 620.9,142 619.5,142 C615.7,142 611.9,142.7 608.5,143.7 L607.1,144 C601.9,144.7 596.7,146.4 591.6,149.5 C585.7,153 580.2,157.1 575.4,162.6 C570.2,167.8 565.4,174 561.2,180.6 C557.1,187.5 553.3,194.4 550.5,201.7 C548.8,206.2 546.7,211 545,216.5 C542.9,222.4 541.9,228.6 541.5,234.8 C541.5,235.5 541.5,236.2 541.5,236.9 C541.5,242.8 542.9,248.3 545,253.8 C546.4,257.3 548.5,260 551.2,262.8 C553.9,265.6 557.1,268 560.9,270.1 C563.7,271.5 566.4,272.5 569.5,272.2 C570.9,272.2 571.9,272.2 573.3,271.9 C577.4,271.2 581.2,269.1 585.4,266.4 C587.8,264.7 589.9,262.6 592.3,260.2 C594.7,257.4 596.8,254.7 599.2,250.9 C603.3,244.7 606.5,239.5 609.2,235 C609.2,237.4 609.5,239.5 609.9,241.9 C610.2,244 610.6,246 611.3,247.8 C612,249.5 612.7,250.9 613.7,252.3 C616.1,255.8 618.5,258.5 621.3,260.6 C623.7,262.7 626.1,264.4 628.2,265.8 C631,267.5 633.4,268.9 636.1,269.9 L636.4,269.9 L636.7,269.9 C640.5,270.9 644.3,271.3 648.1,271.3 C651.9,271.3 655.4,270.6 659.5,269.2 C663.6,267.8 667.8,265.1 671.6,261.3 C674.7,258.2 678.2,254.4 682,249.6 C682,250.3 682,251.3 682,252 C681.3,258.9 684.1,260.3 684.4,260.6 C684.7,261.3 685.1,262 685.8,262.3 C686.1,262.6 686.8,263.3 687.9,263.7 C688.6,264 692.7,264.4 693.8,264.4 C693.8,264.4 693.8,264.4 694.1,264.4 C694.4,264.7 694.8,264.7 695.1,265.1 C695.4,265.4 696.1,265.8 696.8,265.8 C697.1,266.1 697.5,266.5 697.5,266.5 C698.9,267.5 702,268.6 702,268.6 C703,268.9 704.1,268.9 705.1,268.9 C705.8,268.9 706.8,268.9 707.5,268.6 C708.5,268.6 709.2,268.3 710.3,267.9 C711.3,267.6 712,266.9 712.4,266.2 C713.1,265.5 713.8,264.5 714.1,263.4 C714.4,262.3 714.4,261.7 714.4,261 L714.4,259.3 L713.4,257.9 C713.1,257.6 712.7,257.2 712.7,256.5 C712.4,252 713,248.2 714.4,243.7 C715.8,238.9 717.2,234 719.2,228.5 C720.9,223.3 723,218.1 724.7,213 C729.5,205.1 734,198.2 738.2,192.6 C742.3,187.1 746.1,182.6 749.2,179.5 C752.7,176 755.4,173.3 757.8,171.2 C759.2,169.8 760.6,169.1 761.6,168.1 C761.6,168.1 761.6,168.4 761.6,168.8 C761.6,169.5 761.6,170.9 761.6,172.3 C761.6,175.1 761.3,178.2 760.9,182 C760.6,185.8 759.9,190.3 759.2,195.1 C758.5,199.9 757.5,204.4 756.4,208.9 L756.4,209.6 L756.4,210.3 C756.1,211 755.7,212 755.4,213.1 C755.1,214.8 754.4,216.6 753.7,219 L753.7,219.7 L753.7,220 C753,222.1 752.7,224.1 752.3,226.2 C752,228.6 752,231 752,233.5 L752,237 C752,238.4 752,240.1 752,241.5 C752,243.2 752.3,245 753,246.7 L753,247.4 L754,248.8 C754.3,249.1 754.3,249.5 754.3,249.5 C754.3,250.5 754.6,251.2 755.3,252.3 C755.6,253 756.3,254 757,254.7 C757.3,255 757.7,255.4 757.7,255.4 C758.4,256.1 758.7,257.1 759.8,257.8 C761.9,260.2 764.3,262.6 766.7,264.4 C768.8,265.8 770.8,267.2 772.6,268.5 C774.7,269.9 776.7,270.9 778.5,271.6 L778.8,271.9 L779.5,271.9 C783.3,272.9 787.1,273.3 790.9,273.3 C794.7,273.3 798.2,272.6 801.9,271.2 C806,269.8 810.2,267.1 814,263.3 C817.1,260.2 820.6,256 824.7,251.6 C826.8,249.2 828.8,246.4 830.9,243.7 C831.6,247.5 833,251 834.7,254.7 C836.4,258.2 838.5,261.3 841.3,264 C844.1,266.8 847.2,269.2 850.6,271.3 C851.6,272 852.7,272.7 854.1,273 C855.5,273.3 856.9,273.7 858.2,273.7 C859.2,273.7 860.6,273.7 861.7,273.4 C863.4,273.1 865.2,272.4 866.9,271.3 C868.6,270.3 870.4,269.2 872.4,267.5 C874.5,265.8 876.5,263.7 878.6,261.3 C880.7,258.9 882.7,255.8 885.2,252.3 C889.3,246.1 892.5,240.6 895.2,236.1 C895.2,238.2 895.5,240.2 895.5,242 C895.8,244.4 896.2,246.5 896.9,248.6 C897.6,250.7 898.3,252.4 899.3,253.8 C901.7,257.3 904.1,260 906.9,262.1 C909.3,263.8 911.4,265.6 913.8,266.9 C916.2,268.6 918.6,270 921.4,271 L921.7,271.3 L922.4,271.3 C926.2,272.3 929.7,272.7 933.4,272.7 C933.4,272.7 933.4,272.7 933.7,272.7 C934,272.7 934.7,272.7 935.1,272.7 C935.4,272.7 935.8,272.7 936.5,272.7 C936.5,272.7 936.5,272.7 936.8,272.7 C937.1,272.7 937.5,272.7 938.2,272.4 C938.5,272.4 938.5,272.4 938.9,272.4 C939.6,272.1 939.9,272.1 940.6,271.7 C941.3,271 942,270.3 942.3,269.6 C942.6,269.6 942.6,269.3 942.6,268.9 C943.3,268.2 943.6,267.2 943.6,266.5 L944.3,263.7 L941.5,260.6 L941.2,260.3 C940.5,259.6 939.5,258.6 937.7,257.2 C937,256.5 936.3,255.8 935.6,255.5 C934.6,254.5 933.5,253.4 932.8,252.4 C932.5,252.1 932.1,251.4 931.8,251 C931.8,250.7 931.8,250.7 931.5,250.7 C930.5,246.9 930.1,242.8 930.1,238.3 C930.1,233.5 930.4,228.6 930.8,224.1 C931.1,221.7 931.1,220 931.5,218.2 C931.8,216.8 931.8,215.8 931.8,215.1 L931.8,214.8 L931.8,214.5 C931.8,214.5 931.8,214.5 931.8,214.2 C931.8,213.9 931.8,213.5 932.1,213.2 C932.4,211.8 932.8,210.4 933.1,208.7 C933.4,207.3 933.8,205.2 934.8,202.5 C935.5,201.1 935.8,199.4 936.5,197.7 C937.2,195.6 937.9,193.6 938.2,191.1 L938.2,190.4 C938.2,190.4 938.2,190.4 938.2,190.1 L938.5,189.1 C938.8,188.1 939.2,187.4 939.2,186.7 C939.2,186.4 939.5,186 939.5,185.7 C939.5,185.4 939.5,185 939.5,184.7 C941.6,178.5 943.6,171.2 946.1,163.6 C947.5,159.5 947.8,157.4 948.5,155.7 C948.8,154.7 949.2,154 949.5,152.6 C949.8,151.6 950.2,150.2 950.9,148.5 C956.1,141.2 961.3,134 966.8,126.4 C974.1,116.2 979.3,108.6 983.8,101.7 Z M976.5,81 C978.2,75.8 980,71.7 981,68.9 C983.4,63.4 985.8,57.2 988.3,52 C989.3,49.6 990.7,47.2 991.4,45.8 C991.7,45.1 992.4,44.4 992.4,44.1 C992.4,43.8 992.7,43.8 992.7,43.8 C992.7,44.5 992.7,45.5 992.4,46.2 C992.1,48.3 991.7,50.7 991,52.8 C990.3,55.2 989.6,57.3 988.9,59.4 C988.9,59.7 988.6,60.1 988.2,60.8 C987.9,62.2 987.2,63.9 986.1,65.6 C984.7,68.4 983.3,71.8 982,74.9 C981.3,76.3 980.6,78 979.9,79 C979.2,80.4 978.9,81.4 978.2,82.1 C976.1,86.2 973.4,90.7 970.3,95.6 C972.7,90.3 974.8,85.1 976.5,81 Z M624.3,170.1 C623.3,171.1 622.6,172.5 621.5,173.9 C620.5,175.6 619.8,177 619.1,178.4 C618.4,179.4 618.1,180.5 617.7,181.5 C617,182.9 616,184.3 614.6,186.7 C613.2,189.1 611.5,191.9 609.4,195 C605.3,201.6 600.8,208.1 595.6,214.7 C590.4,221.3 585.2,227.1 579.7,232.7 C577.3,235.1 574.9,236.8 573.1,238.2 C573.1,237.5 573.4,237.2 573.4,236.5 C573.7,235.1 574.1,233.4 574.8,231 C575.5,228.9 576.5,226.2 577.6,223.1 C579.7,216.9 581.4,212.4 583.1,208.9 C584.8,205.4 586.6,202 587.9,199.2 C589.3,196.4 591,194 592.7,191.6 C594.4,189.2 596.8,186.1 600,182.6 C603.1,178.5 606.2,175.3 609,172.9 C611.8,170.5 613.8,169.1 615.9,168.1 C616.2,168.1 616.6,167.8 616.9,167.8 C616.9,167.8 617.2,167.8 617.2,167.5 C618.2,167.2 619.3,167.2 620,167.2 C620.7,167.2 621,167.2 621.7,167.2 C623.1,167.5 624.5,167.9 625.5,168.2 C625.7,168.7 625,169.4 624.3,170.1 Z M911.6,162.8 C910.2,166.3 909.2,169.7 908.1,172.8 C907.4,173.5 907.1,174.5 906.7,175.6 C906.7,175.6 906.7,175.6 906.4,175.9 L906.1,176.2 L905.8,176.5 C902.7,181.7 899.2,186.5 896.1,191.7 C893,196.5 889.9,201.7 886.8,206.5 L883.3,212 C878.8,217.9 874,223.4 869.5,228.2 C866.4,231.3 863.6,233.7 861.6,235.5 C861.3,235.8 860.6,236.2 860.2,236.5 C860.2,235.8 860.5,234.8 860.5,233.7 C860.8,232.3 861.2,230.6 861.9,228.2 C862.6,225.8 863.6,223.4 864.7,220.3 C869.2,208.2 873.3,198.9 877.1,191.6 C880.9,184.7 885.7,177.8 891.3,170.9 C894.8,166.8 898.2,163.3 901,160.9 C903.4,158.8 905.5,157.4 907.2,156.4 L907.9,156.1 C909.3,155.8 910.3,155.4 911.4,155.4 C912.1,155.4 912.4,155.4 913.1,155.4 C913.4,155.4 913.8,155.4 914.1,155.7 C913,158.7 912.3,160.8 911.6,162.8 Z" id="Shape" fill="#473D4B"></path>
                <path d="M1499.3,154.9 L1499,153.9 C1499,153.6 1499,153.6 1498.7,153.6 C1498.7,153.6 1498.7,153.3 1498.4,153.3 C1498.1,151.6 1497.4,149.8 1496,148.1 C1495.3,147.4 1494.6,146.4 1493.6,145.3 L1493.3,145 L1493,144.7 C1492,143.7 1490.6,142.6 1489.2,141.6 C1488.5,141.3 1487.5,140.9 1486.8,140.2 C1485.8,139.9 1484.7,139.5 1483.3,138.8 L1483,138.8 L1482.7,138.8 C1481.3,138.5 1479.9,138.5 1478.6,138.5 C1476.9,138.5 1475.1,138.8 1473.4,139.5 C1472.4,139.8 1471.7,140.2 1471,140.5 L1470.3,140.5 L1469.6,140.8 C1468.9,141.1 1468.6,141.1 1467.9,141.5 C1467.2,142.2 1466.2,142.9 1465.5,143.9 C1464.8,144.9 1464.8,146 1464.8,147 C1464.8,147.3 1464.8,147.7 1464.8,147.7 L1464.5,148 C1464.5,148 1464.5,148 1464.5,148.3 C1464.2,148.6 1464.2,149 1464.2,149.3 L1463.9,149.6 L1463.6,150.6 C1462.9,152 1462.6,153.4 1462.2,154.7 C1461.9,155.7 1461.5,156.8 1461.5,157.5 C1460.8,159.6 1459.8,161.6 1459.1,163.7 C1458.4,165.8 1457.7,168.2 1457,170.3 C1457,170.3 1457,170.3 1457,170.6 C1456.7,171.3 1456.7,172 1456.7,172.3 C1454.3,179.2 1450.8,191.3 1446.3,200.3 C1441.5,208.9 1437,215.8 1432.8,221.7 C1421.8,237.6 1409,243.5 1407.9,244.1 C1407.6,244.1 1407.2,244.4 1406.5,244.4 C1406.2,244.4 1405.5,244.7 1404.4,244.7 C1404.4,244.4 1404.4,244 1404.4,243.7 C1404.7,242.7 1404.7,241.3 1405.1,239.6 C1406.1,235.1 1406.5,234.4 1407.9,228.6 C1408.2,227.6 1408.6,225.1 1409.6,222 C1410.3,219.2 1411,216.5 1411.7,214.4 C1412.4,212.7 1413.1,210.9 1413.4,208.9 C1414.1,207.2 1414.4,205.8 1414.8,205.1 L1415.5,204.1 L1415.5,203.1 L1418.6,193.4 C1418.9,193.1 1419.3,192.4 1419.3,191.7 C1419.6,190.7 1420,190 1420,188.6 C1420,188.6 1420,188.3 1420,187.9 L1420.3,187.2 L1420.3,185.5 C1420.6,183.8 1421.3,182 1421.7,180.3 C1422,178.6 1422.7,176.8 1423.8,175.1 C1424.5,174.1 1424.8,173 1425.5,172 C1425.8,171 1426.5,170.3 1426.9,169.6 C1427.9,167.5 1428.6,165.5 1428.6,163.4 C1428.6,162.7 1428.6,162 1428.6,161.3 C1428.6,160.3 1428.3,159.2 1427.6,158.5 C1426.9,157.1 1425.9,156.1 1424.8,155 C1423.8,154.3 1422.7,153.6 1421.3,152.9 C1420.6,152.6 1419.9,152.2 1418.9,152.2 C1418.2,151.9 1417.2,151.9 1416.1,151.9 C1415.4,151.9 1415.1,151.9 1414.4,152.2 C1414.1,152.2 1413.4,152.5 1412.7,152.9 C1412,152.9 1411.7,152.9 1411,152.9 C1410,152.9 1408.9,152.9 1407.9,153.2 C1407.9,153.2 1407.9,153.2 1407.6,153.2 C1407.3,153.2 1406.9,153.2 1406.2,153.2 L1405.9,153.2 L1405.2,153.2 C1403.5,153.2 1401.7,153.5 1400.4,154.2 C1399.1,154.9 1397.3,155.9 1396.3,157 C1395.6,157.7 1394.9,158.4 1394.2,159.1 C1393.9,159.4 1393.5,159.8 1393.5,160.1 C1393.5,160.4 1393.2,160.4 1393.2,161.1 C1393.2,161.1 1393.2,161.4 1392.9,161.8 C1389.8,170.1 1387,178.4 1384.3,186.7 C1382.2,190.2 1379.5,194.3 1376.4,199.5 C1371.2,207.4 1365.7,215.4 1359.5,223.7 C1353.6,231.6 1347.8,238.9 1342.2,244.8 C1339.4,247.6 1337.4,250 1335.6,251 C1334.9,251.7 1334.2,252 1333.5,252 C1333.2,252 1333.2,252 1333.2,252 C1332.9,252 1332.9,252 1332.9,252 C1332.9,252 1332.6,251.7 1332.6,251.3 C1332.3,251 1332.3,250.3 1331.9,249.6 C1330.9,246.1 1330.2,242 1330.2,237.2 C1330.2,232.4 1330.5,227.5 1330.9,223 C1331.2,220.6 1331.6,218.9 1331.6,217.1 C1331.9,215.7 1331.9,214.3 1331.9,214 L1331.9,213.7 L1331.9,213.4 C1331.9,213.4 1331.9,213.4 1331.9,213.1 C1331.9,212.8 1331.9,212.4 1332.2,212.1 C1332.5,211.4 1332.5,211.1 1332.5,210.4 C1332.8,209.7 1332.8,208.7 1332.8,207.6 C1333.1,206.2 1333.5,204.1 1334.5,201.7 C1335.2,200 1335.5,198.2 1336.2,196.5 C1336.5,195.1 1337.2,193 1337.9,191 L1338.2,190 L1338.2,189.7 C1338.2,189.4 1338.2,189.4 1338.2,189.4 L1338.5,189.1 C1339.2,188.1 1339.5,186.7 1339.5,185.3 L1339.8,184.3 L1339.8,183.3 C1341.9,177.1 1343.9,169.8 1346.4,162.2 C1347.8,158.1 1348.1,156 1348.8,154.3 C1349.1,153.3 1349.5,152.6 1349.8,151.2 C1350.1,150.2 1350.5,148.8 1351.2,147.1 C1356.4,139.8 1361.6,132.6 1367.1,125 C1372.6,117.1 1377.5,109.8 1381.9,102.6 C1386.4,95.7 1390.2,89.1 1393.6,83.3 C1397.1,77.4 1399.5,72.3 1401.2,68.1 C1401.5,67.1 1401.9,66.4 1401.9,65.7 C1401.9,65.4 1402.2,65 1402.2,64.7 L1402.2,64.4 C1402.5,63.7 1402.5,63 1402.9,62 C1403.6,59.9 1404.6,57.2 1405.3,54.7 C1405.6,53.3 1406,52.3 1406.3,50.9 C1406.3,50.2 1406.6,49.9 1406.6,49.2 C1406.6,48.9 1406.9,48.2 1406.9,47.8 C1407.2,45.4 1407.6,43.3 1407.6,40.9 C1407.6,39.9 1407.6,38.8 1407.3,37.4 C1407.3,36.7 1407,36 1407,35.3 C1407,34.6 1406.7,34.3 1406.3,33.6 C1406,32.9 1405.3,31.9 1404.2,31.2 C1403.5,30.9 1403.2,30.5 1402.5,30.2 C1401.8,29.9 1401.1,29.9 1400.4,29.9 C1400.4,29.9 1399.7,29.9 1399,29.6 C1398.3,29.3 1397.6,28.9 1396.6,28.6 C1395.9,28.3 1395.2,28.3 1394.9,28.3 C1393.2,27.6 1391.1,27.3 1389,27.3 C1386.2,27.3 1383.8,28 1381.1,29 C1378.4,30 1375.6,31.8 1372.8,33.8 C1370,35.9 1367.3,38.6 1364.5,42.1 C1358.6,48.7 1352.8,58.3 1346.2,70.4 C1340,82.5 1333.4,98 1326.5,117 C1326.5,117 1326.5,117 1326.5,117.3 C1326.2,118 1325.8,118.7 1325.5,119.7 C1325.2,120.7 1324.5,122.1 1324.1,123.8 C1322.7,127.6 1321,132.4 1318.9,138 L1318.9,138.3 L1318.9,138.6 C1318.6,140.3 1317.9,142.1 1317.2,143.4 C1315.8,146.9 1314.4,150 1313.4,153.1 C1311,160.4 1308.6,167.6 1306.1,174.5 C1305.8,174.8 1305.8,175.2 1305.8,175.2 C1305.5,175.9 1305.5,176.6 1305.1,176.9 L1305.1,177.2 C1304.1,181.3 1302.7,185.5 1301.6,189.6 C1299.2,197.9 1297.1,205.8 1295.7,213.1 C1294.7,218.6 1294.3,224.1 1294.3,229.3 C1294.3,231 1294,232.8 1294,234.5 C1294,237.3 1294,239.7 1294.3,242.4 C1294.6,244.8 1295,246.9 1295.7,248.6 C1296.4,250.3 1297.1,252.1 1298.1,253.4 C1300.5,256.5 1302.9,259.6 1305.7,261.7 C1308.1,263.8 1310.5,265.5 1312.6,266.9 C1315,268.6 1317.4,270 1320.2,271 L1320.5,271.3 L1321.2,271.3 C1325,272.3 1328.8,272.7 1332.6,272.7 C1336.4,272.7 1339.9,272 1344,270.6 C1348.1,269.2 1352.3,266.5 1356.1,262.7 C1359.2,259.6 1362.7,255.4 1366.8,251 C1367.5,250 1368.2,248.9 1369.2,248.2 C1369.2,248.5 1369.2,248.9 1369.2,249.2 C1369.2,250.6 1369.2,252.3 1369.5,253.7 C1369.5,254.7 1369.5,256.1 1369.8,257.8 C1370.1,259.9 1373.3,264 1374.3,266.1 C1375,267.5 1376.4,268.5 1377.4,269.6 C1378.4,270.3 1379.8,271 1381.2,271.3 C1382.2,271.6 1383.6,272 1384.7,272 L1385,272 C1386.7,272.7 1388.1,273 1389.5,273.4 C1390.5,273.7 1391.6,273.7 1392.6,274.1 C1393.3,274.4 1394,274.4 1394.7,274.4 C1395.4,274.4 1396.1,274.4 1396.4,274.1 L1396.7,274.1 L1398.1,274.1 C1398.8,274.1 1399.8,274.1 1400.5,273.8 C1400.8,273.8 1401.5,273.5 1401.9,273.5 C1401.9,273.5 1401.9,273.5 1402.2,273.5 C1403.9,273.2 1406,272.5 1408.1,271.4 C1410.9,270 1424,264.5 1427.8,260.4 C1427.8,260.7 1418.1,302.5 1389.5,307.4 C1389.2,307.4 1389.2,307.7 1388.8,307.7 C1387.8,308 1387.1,308 1386.4,308.4 C1382.9,309.4 1379.8,309.8 1378.1,309.8 C1377.8,309.8 1377.1,309.8 1377.1,309.8 L1376.4,309.8 L1375.7,309.8 C1373.6,310.1 1371.9,310.1 1370.5,310.1 C1370.2,310.1 1369.8,310.1 1369.5,310.1 C1368.5,310.1 1367.1,310.1 1366,310.1 C1365.3,310.1 1364.3,310.1 1363.6,310.1 C1363.3,310.1 1362.9,310.1 1362.6,310.1 C1362.3,310.1 1361.6,310.1 1361.6,310.1 L1357.8,308.7 L1356.4,310.8 L1356.1,310.8 L1355.4,311.8 C1355.4,311.8 1355.4,311.8 1355.1,311.8 C1354.4,312.1 1354.1,312.8 1353.7,313.2 C1353.4,313.9 1353,314.6 1353,315.3 C1353,316 1353,316.3 1353,316.7 C1353,317 1353,317.4 1353,317.7 C1353,318.4 1353.3,318.7 1353.3,319.1 C1353.6,319.8 1353.6,320.1 1354,320.5 C1354.3,321.2 1354.7,321.9 1355.4,322.6 C1355.7,323.3 1356.4,324.3 1357.1,325.4 C1358.1,327.1 1359.5,328.5 1360.9,329.5 C1361.2,329.8 1361.9,330.2 1362.3,330.5 C1362.6,331.2 1363,331.5 1363.3,331.9 C1363.6,332.2 1363.6,332.2 1364,332.6 C1364,332.9 1364,333.3 1364.3,333.6 C1364.6,334.3 1365,335 1365.3,335.3 C1365.6,335.6 1366,336 1366.3,336.3 C1366.6,336.6 1367.3,337 1368,337.3 C1368.7,337.6 1369,337.6 1370.1,338 C1372.5,338.7 1374.6,339 1376.3,339.4 C1377.3,339.7 1378.7,339.7 1380.1,339.7 C1380.8,339.7 1381.1,339.7 1381.8,339.7 C1383.2,339.7 1384.2,339.7 1385.6,339.7 C1394.6,339.7 1403.2,338.3 1411.2,335.6 C1421.6,331.8 1435.7,322.1 1447.1,300.7 C1459.2,278.3 1462.3,266.9 1468.9,244.1 C1470.3,238.9 1471.3,234.1 1472,231 C1472.3,229.3 1472.7,227.9 1473,226.9 C1473,226.6 1473.3,225.9 1473.3,225.5 L1473.3,225 C1474,222.2 1479.9,199.4 1485.4,190.5 L1485.4,190.2 L1485.4,189.9 C1485.7,188.9 1486.4,187.1 1487.8,185.4 C1489.2,183.3 1490.6,181.3 1491.3,179.5 C1492,178.1 1492.7,176.7 1493,175.7 C1493.3,174.7 1494,174 1494,173.3 C1494.3,173 1494.7,171.9 1495.4,171.2 C1496.1,170.5 1496.4,170.2 1496.8,169.5 C1497.1,169.2 1497.5,168.8 1497.5,168.1 C1497.8,167.8 1497.8,167.1 1498.2,166.4 C1498.5,165.7 1498.5,164.7 1498.9,162.9 C1499.6,161.5 1499.9,160.8 1499.9,159.8 C1500,158 1499.7,156.6 1499.3,154.9 Z M1374.7,79.3 C1376.4,74.8 1377.8,70.7 1378.8,68.3 C1381.2,62.8 1383.6,56.6 1386.1,51.4 C1387.1,49 1388.2,46.6 1389.2,44.8 C1389.5,44.1 1389.9,43.4 1390.2,42.7 C1390.2,42.7 1390.2,42.4 1390.5,42.4 C1390.5,43.4 1390.2,44.8 1389.8,46.5 C1389.1,49.6 1388.4,53.4 1387,56.9 C1386,60.4 1384.6,63.8 1383.5,66.6 C1382.1,69.4 1380,73.9 1377.3,79 C1375.9,81.8 1374.5,84.5 1373.5,87.3 C1372.3,89.7 1371.1,92.2 1369.4,94.8 C1371.2,89.3 1372.9,84.1 1374.7,79.3 Z" id="Shape" fill="#473D4B"></path>
                <path d="M528.3,286.1 C528.3,285.8 528,285.8 528,285.4 C527.7,284.7 527.3,284.4 527,283.7 C526.3,282.7 526,282 525.3,281.3 C525.3,281 525,281 525,280.6 C524.3,279.6 524.3,278.9 523.6,277.1 L523.3,276.8 L523,276.5 C523,276.2 522.3,272.7 522,272.4 C521.3,271 521.7,269.6 520.6,266.5 L520.3,265.8 C520,265.1 520,263.7 520,262.7 C520,262.4 520,262 520,261.7 L519.7,259.3 C519.4,253.1 519.7,250 520.7,240.7 C521.4,234.1 522.8,224.1 524.5,215.8 C525.5,211 526.9,206.5 528,202.3 C532.8,186.4 538,170.9 543.5,155.7 C548.7,140.5 554.2,125.3 560.1,109.8 L561.5,106 C565.3,105.3 567,105.3 568.8,105 C569.8,105 570.9,104.7 571.9,104.7 C572.9,104.7 574.3,104.4 576.4,104.4 C576.7,104.4 577.1,104.4 577.8,104.4 C578.1,104.4 578.8,104.4 578.8,104.4 C579.5,104.4 580.2,104.1 580.5,104.1 C581.2,103.8 581.5,103.4 581.9,103.4 L582.9,103.1 L583.2,102.8 C583.5,102.8 583.9,102.5 584.2,102.1 C584.5,101.8 584.9,101.8 584.9,101.4 C585.2,101.1 585.9,100.7 586.3,100.4 C586.6,100.1 587,99.7 587.3,99 C587.6,98.3 588,97.3 588,96.6 C588,96.3 588,96.3 588,95.9 C588,95.9 588,95.9 588,95.6 C588,95.3 588.3,95.3 588.3,94.9 L588.6,94.6 C589.3,94.3 590.3,93.6 591,92.5 C591.3,91.8 591.7,91.5 592,90.4 C592.3,89.7 592.3,89 592.3,88 C592.3,87 592,85.9 591.6,85.2 L591.3,84.5 L591,84.2 C590.3,83.2 589.3,82.5 588.6,82.1 C587.6,81.8 586.9,81.4 585.8,81.4 C585.1,81.4 584.8,81.4 584.1,81.4 C583.8,81.4 583.4,81.4 582.7,81.4 C582.7,81.4 582.4,81.4 582,81.4 C581,81.4 579.2,81.7 577.5,82.1 C573,82.8 570.9,82.8 569.2,83.1 C569.9,81.7 570.6,80.7 570.9,79.6 C571.2,78.9 571.2,78.2 571.6,77.9 C571.6,77.2 571.9,76.9 571.9,75.8 C571.9,75.8 571.9,75.5 572.2,75.5 C572.9,74.5 573.2,73.8 573.9,72.7 C574.2,72 574.6,71.3 574.6,70.6 C574.9,69.9 574.9,69.2 575.3,68.2 C575.6,67.2 575.6,66.1 575.6,65.1 C575.6,64.1 575.6,63 574.9,61.6 C574.9,61.6 574.9,61.3 574.6,60.9 C574.6,60.6 574.3,59.9 574.3,59.2 C574,57.1 573.3,55.4 572.2,53.7 C571.9,53 571.2,52.3 570.8,51.3 C570.1,49.6 569.1,48.2 567.3,46.8 C566.6,46.1 565.9,45.8 564.9,45.4 C563.9,45.1 563.2,44.4 561.8,44 C560.4,43.3 558.7,43 557,43 C556,43 555.3,43 554.2,43.3 C553.2,43.6 552.5,44 551.8,44.7 C551.5,44.7 551.5,45 551.5,45 L551.2,45 L550.5,45.3 C549.8,45.6 549.1,46 548.4,46.3 C547.4,47 546.7,48 546.3,49.1 C546,50.1 545.6,51.2 545.6,52.2 C545.6,52.2 545.6,52.2 545.6,52.5 C545.3,52.8 544.9,53.2 544.9,53.9 C544.9,54.2 544.6,54.6 544.6,54.9 L544.3,55.2 L544,56.2 C541.6,62.4 539.2,68.6 536.7,75.2 C534.6,80.7 532.6,86.2 530.5,91.4 C519.5,94.5 510.5,96.9 503.9,98.7 C500.1,99.7 496.6,101.1 493.5,102.2 C492.8,102.2 492.1,102.5 491.4,102.5 C490.4,102.8 489.3,103.2 488.6,103.9 L488.3,104.2 L488,104.5 C487.7,104.8 487,105.5 486.6,105.9 C485.6,106.6 484.9,108 484.2,109 C483.9,110 483.5,110.7 483.5,111.8 C483.5,112.1 483.5,112.5 483.5,113.2 C483.5,113.9 483.5,114.6 483.8,115.3 C484.1,116.3 484.8,117.4 485.9,118.1 C486.6,118.8 487.6,119.1 488.3,119.5 C489.7,119.8 491.1,120.2 492.4,120.2 C494.1,120.2 495.9,119.9 497.6,119.2 C503.5,117.8 509.3,116.4 514.9,115.4 C517.7,114.7 520.4,114.4 523.2,113.7 C522.2,117.2 520.8,120.3 519.7,123.7 C517.6,129.9 515.6,136.1 513.8,142.3 C508.6,158.2 504.1,174.4 500,190.6 C499,194.1 498.3,197.9 497.6,201.6 C496.6,205.7 494.5,216.1 493.8,220.2 C493.1,224.3 492.8,228.1 492.4,232.3 C491.7,240.9 491,253 492.1,262 C493.1,269.6 494.2,277.5 498,284.1 C498.7,285.1 499,285.8 499.7,286.9 C500,287.2 500,287.9 500.4,288.3 C501.1,289.3 501.4,290 502.1,290.7 C503.1,291.7 504.2,292.8 505.9,294.5 C506.2,294.8 506.6,295.5 507.3,295.5 C508,295.8 508.3,296.2 508.7,296.2 C509,296.2 509.4,296.5 510.1,296.5 C510.4,296.5 511.1,296.5 511.8,296.5 C512.1,296.5 512.5,296.2 512.8,296.2 C513.1,296.2 513.1,296.2 513.5,296.2 C513.8,296.2 514.5,296.2 514.9,296.2 C515.2,296.5 515.6,296.5 516.3,296.5 C517.7,296.8 517.3,297.2 519.1,297.2 C520.1,297.2 520.8,297.2 521.9,297.2 C522.6,297.2 523.3,297.2 524,297.2 C524.3,297.2 524.7,297.2 525.4,296.9 C525.7,296.9 526.1,296.9 526.4,296.6 C526.7,296.6 526.7,296.3 527.1,296.3 C527.4,296.3 527.8,296 528.1,295.6 C528.4,295.3 528.8,294.9 529.1,294.2 C529.4,293.9 529.4,293.2 529.4,292.5 C529.4,292.5 529.4,292.5 529.4,292.2 L529.7,291.2 L529.7,290.9 L530.4,289.2 L528.7,287.1 C528.7,286.8 528.3,286.5 528.3,286.1 Z" id="Shape" fill="#473D4B"></path>
            </g>
        </g>
    </g>
</svg>